<svg width="63" height="63" viewBox="0 0 63 63" fill="none" xmlns="http://www.w3.org/2000/svg">
<path d="M39.4936 38.9531V43H22.7396V39.5693L30.567 31.2755C31.2998 30.4317 31.8827 29.6879 32.3157 29.0439C32.7598 28.3999 33.0818 27.8171 33.2816 27.2952C33.4815 26.7623 33.5814 26.2738 33.5814 25.8297C33.5814 25.108 33.4648 24.4973 33.2316 23.9977C33.0096 23.4981 32.6821 23.1151 32.2491 22.8486C31.816 22.5821 31.2887 22.4489 30.6669 22.4489C30.0008 22.4489 29.429 22.621 28.9516 22.9652C28.4741 23.3094 28.1077 23.7868 27.8524 24.3974C27.597 24.997 27.4693 25.6798 27.4693 26.4459H22.24C22.24 24.9692 22.5953 23.6258 23.3058 22.4156C24.0164 21.1943 25.0101 20.2228 26.2869 19.5011C27.5637 18.7684 29.057 18.402 30.7668 18.402C32.5211 18.402 33.9922 18.6795 35.1802 19.2347C36.3682 19.7898 37.2675 20.5836 37.8781 21.6162C38.4888 22.6487 38.7941 23.8922 38.7941 25.3467C38.7941 26.1683 38.6609 26.9621 38.3944 27.7282C38.139 28.4943 37.7671 29.2549 37.2786 30.0098C36.7901 30.7648 36.2016 31.5365 35.5132 32.3248C34.8249 33.1019 34.0477 33.9235 33.1817 34.7896L29.5178 38.9531H39.4936Z" fill="#75BF7A"/>
<path d="M59.8302 19.8391L59.6756 19.4624L59.3885 19.7511L53.6696 25.5002L53.5606 25.6098L53.5998 25.7594C54.0779 27.5821 54.3172 29.4652 54.3172 31.4096C54.3172 44.0293 44.0596 54.2869 31.4399 54.2869C18.7897 54.2869 8.5323 44.0291 8.5323 31.4096C8.5323 29.4344 8.77171 27.521 9.24966 25.6988L9.28889 25.5493L9.17983 25.4396L3.46101 19.6906L3.17292 19.4009L3.01899 19.7793C1.55408 23.3806 0.729692 27.2881 0.729692 31.4096C0.729692 48.322 14.4972 62.0895 31.4096 62.0895C48.322 62.0895 62.0895 48.322 62.0895 31.4096C62.0895 27.3198 61.2959 23.4119 59.8302 19.8391ZM50.4294 18.7004L50.6125 18.9735L50.845 18.741L56.0495 13.5365L56.2143 13.3717L56.0755 13.1845C50.4897 5.64515 41.5148 0.729692 31.4096 0.729692C21.3351 0.729692 12.36 5.61454 6.77395 13.1542L6.63522 13.3415L6.80001 13.5063L12.0044 18.7107L12.237 18.9432L12.4201 18.6701C15.8893 13.4962 21.4218 9.81817 27.8204 8.80138C28.9861 8.62207 30.1825 8.5323 31.4096 8.5323C32.6368 8.5323 33.8332 8.62208 34.999 8.8014C41.4272 9.81813 46.9598 13.5259 50.4294 18.7004Z" fill="#75BF7A" stroke="#75BF7A" stroke-width="0.540615"/>
</svg>
