<svg width="63" height="63" viewBox="0 0 63 63" fill="none" xmlns="http://www.w3.org/2000/svg">
<path d="M27.7525 29.6606H30.4005C31.1554 29.6606 31.7772 29.5274 32.2657 29.2609C32.7653 28.9945 33.1317 28.617 33.3649 28.1284C33.6091 27.6399 33.7313 27.0681 33.7313 26.4131C33.7313 25.8468 33.6202 25.3417 33.3982 24.8976C33.1761 24.4534 32.8375 24.1037 32.3823 23.8484C31.9382 23.5819 31.3608 23.4487 30.6503 23.4487C30.1395 23.4487 29.651 23.5541 29.1847 23.7651C28.7295 23.9649 28.3576 24.2592 28.0689 24.6477C27.7802 25.0252 27.6359 25.4804 27.6359 26.0134H22.4232C22.4232 24.6588 22.7896 23.4875 23.5223 22.4994C24.2662 21.5112 25.2488 20.7507 26.4701 20.2178C27.7025 19.6737 29.0459 19.4017 30.5004 19.4017C32.1769 19.4017 33.648 19.6682 34.9137 20.2011C36.1905 20.7229 37.1787 21.5001 37.8781 22.5327C38.5887 23.5541 38.944 24.8198 38.944 26.3298C38.944 27.1181 38.7552 27.8786 38.3777 28.6114C38.0114 29.3331 37.484 29.977 36.7956 30.5433C36.1183 31.0984 35.3078 31.5425 34.3641 31.8756C33.4315 32.1976 32.3934 32.3586 31.2498 32.3586H27.7525V29.6606ZM27.7525 33.5743V30.9263H31.2498C32.5155 30.9263 33.648 31.0707 34.6472 31.3593C35.6465 31.648 36.4958 32.0644 37.1953 32.6084C37.8948 33.1524 38.4277 33.813 38.7941 34.5902C39.1605 35.3674 39.3437 36.2334 39.3437 37.1882C39.3437 38.3207 39.1216 39.3311 38.6775 40.2193C38.2334 41.1075 37.6117 41.8569 36.8123 42.4676C36.0129 43.0782 35.0747 43.5445 33.9977 43.8665C32.9208 44.1774 31.755 44.3328 30.5004 44.3328C29.49 44.3328 28.4852 44.1941 27.486 43.9165C26.4868 43.6389 25.5819 43.217 24.7714 42.6508C23.9609 42.0734 23.3114 41.3462 22.8229 40.4691C22.3343 39.5809 22.0901 38.5261 22.0901 37.3048H27.3028C27.3028 37.8711 27.4471 38.3818 27.7358 38.837C28.0356 39.2811 28.4408 39.6364 28.9516 39.9029C29.4734 40.1582 30.0396 40.2859 30.6503 40.2859C31.383 40.2859 32.0048 40.1527 32.5155 39.8862C33.0373 39.6086 33.4315 39.2311 33.698 38.7537C33.9755 38.2763 34.1143 37.7267 34.1143 37.105C34.1143 36.2612 33.9644 35.5839 33.6646 35.0732C33.376 34.5514 32.9541 34.1739 32.3989 33.9407C31.8438 33.6964 31.1776 33.5743 30.4005 33.5743H27.7525Z" fill="#75BF7A"/>
<path d="M59.8302 19.8391L59.6756 19.4624L59.3885 19.7511L53.6696 25.5002L53.5606 25.6098L53.5998 25.7594C54.0779 27.5821 54.3172 29.4652 54.3172 31.4096C54.3172 44.0293 44.0596 54.2869 31.4399 54.2869C18.7897 54.2869 8.5323 44.0291 8.5323 31.4096C8.5323 29.4344 8.77171 27.521 9.24966 25.6988L9.28889 25.5493L9.17983 25.4396L3.46101 19.6906L3.17292 19.4009L3.01899 19.7793C1.55408 23.3806 0.729692 27.2881 0.729692 31.4096C0.729692 48.322 14.4972 62.0895 31.4096 62.0895C48.322 62.0895 62.0895 48.322 62.0895 31.4096C62.0895 27.3198 61.2959 23.4119 59.8302 19.8391ZM50.4294 18.7004L50.6125 18.9735L50.845 18.741L56.0495 13.5365L56.2143 13.3717L56.0755 13.1845C50.4897 5.64515 41.5148 0.729692 31.4096 0.729692C21.3351 0.729692 12.36 5.61454 6.77395 13.1542L6.63522 13.3415L6.80001 13.5063L12.0044 18.7107L12.237 18.9432L12.4201 18.6701C15.8893 13.4962 21.4218 9.81817 27.8204 8.80138C28.9861 8.62207 30.1825 8.5323 31.4096 8.5323C32.6368 8.5323 33.8332 8.62208 34.999 8.8014C41.4272 9.81813 46.9598 13.5259 50.4294 18.7004Z" fill="#75BF7A" stroke="#75BF7A" stroke-width="0.540615"/>
<path d="M59.8302 19.8391L59.6756 19.4624L59.3885 19.7511L53.6696 25.5002L53.5606 25.6098L53.5998 25.7594C54.0779 27.5821 54.3172 29.4652 54.3172 31.4096C54.3172 44.0293 44.0596 54.2869 31.4399 54.2869C18.7897 54.2869 8.5323 44.0291 8.5323 31.4096C8.5323 29.4344 8.77171 27.521 9.24966 25.6988L9.28889 25.5493L9.17983 25.4396L3.46101 19.6906L3.17292 19.4009L3.01899 19.7793C1.55408 23.3806 0.729692 27.2881 0.729692 31.4096C0.729692 48.322 14.4972 62.0895 31.4096 62.0895C48.322 62.0895 62.0895 48.322 62.0895 31.4096C62.0895 27.3198 61.2959 23.4119 59.8302 19.8391ZM50.4294 18.7004L50.6125 18.9735L50.845 18.741L56.0495 13.5365L56.2143 13.3717L56.0755 13.1845C50.4897 5.64515 41.5148 0.729692 31.4096 0.729692C21.3351 0.729692 12.36 5.61454 6.77395 13.1542L6.63522 13.3415L6.80001 13.5063L12.0044 18.7107L12.237 18.9432L12.4201 18.6701C15.8893 13.4962 21.4218 9.81817 27.8204 8.80138C28.9861 8.62207 30.1825 8.5323 31.4096 8.5323C32.6368 8.5323 33.8332 8.62208 34.999 8.8014C41.4272 9.81813 46.9598 13.5259 50.4294 18.7004Z" fill="#75BF7A" stroke="#75BF7A" stroke-width="0.540615"/>
</svg>
