<svg width="260" height="67" viewBox="0 0 260 67" fill="none" xmlns="http://www.w3.org/2000/svg">
<rect width="260" height="67" rx="5" fill="black"/>
<path d="M92.979 41H89.1351L89.1592 37.973H92.979C93.8519 37.973 94.5886 37.7728 95.1892 37.3724C95.7898 36.964 96.2463 36.3634 96.5586 35.5706C96.8709 34.7698 97.027 33.7968 97.027 32.6516V31.8468C97.027 30.982 96.939 30.2212 96.7628 29.5645C96.5866 28.8999 96.3263 28.3433 95.982 27.8949C95.6377 27.4464 95.2092 27.1101 94.6967 26.8859C94.1922 26.6616 93.6116 26.5495 92.955 26.5495H89.0631V23.5105H92.955C94.1402 23.5105 95.2212 23.7107 96.1982 24.1111C97.1832 24.5115 98.0321 25.0841 98.7448 25.8288C99.4655 26.5736 100.022 27.4544 100.414 28.4715C100.807 29.4885 101.003 30.6216 101.003 31.8709V32.6516C101.003 33.8929 100.807 35.026 100.414 36.051C100.022 37.0681 99.4655 37.9489 98.7448 38.6937C98.0321 39.4304 97.1872 39.999 96.2102 40.3994C95.2332 40.7998 94.1562 41 92.979 41ZM91.3574 23.5105V41H87.4414V23.5105H91.3574ZM117.976 31.8709V32.6516C117.976 33.981 117.792 35.1742 117.423 36.2312C117.063 37.2883 116.547 38.1892 115.874 38.9339C115.209 39.6787 114.416 40.2513 113.496 40.6517C112.583 41.044 111.57 41.2402 110.456 41.2402C109.343 41.2402 108.326 41.044 107.405 40.6517C106.485 40.2513 105.684 39.6787 105.003 38.9339C104.33 38.1892 103.81 37.2883 103.441 36.2312C103.073 35.1742 102.889 33.981 102.889 32.6516V31.8709C102.889 30.5415 103.073 29.3483 103.441 28.2913C103.81 27.2262 104.326 26.3213 104.991 25.5766C105.664 24.8318 106.46 24.2632 107.381 23.8708C108.302 23.4704 109.319 23.2702 110.432 23.2702C111.546 23.2702 112.563 23.4704 113.484 23.8708C114.404 24.2632 115.197 24.8318 115.862 25.5766C116.535 26.3213 117.055 27.2262 117.423 28.2913C117.792 29.3483 117.976 30.5415 117.976 31.8709ZM114.024 32.6516V31.8468C114.024 30.9579 113.944 30.1732 113.784 29.4925C113.624 28.8038 113.391 28.2272 113.087 27.7627C112.783 27.2983 112.406 26.9499 111.958 26.7177C111.51 26.4775 111.001 26.3573 110.432 26.3573C109.84 26.3573 109.323 26.4775 108.883 26.7177C108.442 26.9499 108.07 27.2983 107.766 27.7627C107.47 28.2272 107.241 28.8038 107.081 29.4925C106.929 30.1732 106.853 30.9579 106.853 31.8468V32.6516C106.853 33.5325 106.929 34.3173 107.081 35.006C107.241 35.6867 107.474 36.2633 107.778 36.7357C108.082 37.2082 108.454 37.5646 108.895 37.8048C109.343 38.045 109.864 38.1652 110.456 38.1652C111.025 38.1652 111.53 38.045 111.97 37.8048C112.418 37.5646 112.795 37.2082 113.099 36.7357C113.403 36.2633 113.632 35.6867 113.784 35.006C113.944 34.3173 114.024 33.5325 114.024 32.6516ZM124.511 38.8138L127.994 23.5105H130L130.793 25.4084L127.081 41H124.883L124.511 38.8138ZM123.153 23.5105L126.072 38.8859L125.568 41H123.069L119.273 23.5105H123.153ZM133.279 38.8018L136.162 23.5105H140.03L136.234 41H133.76L133.279 38.8018ZM131.309 23.5105L134.841 38.8979L134.433 41H132.246L128.475 25.3964L129.303 23.5105H131.309ZM156.258 23.5105V41H152.354L145.748 29.6967V41H141.832V23.5105H145.748L152.366 34.8138V23.5105H156.258ZM170.565 37.973V41H161.736V37.973H170.565ZM163.069 23.5105V41H159.153V23.5105H163.069ZM186.276 31.8709V32.6516C186.276 33.981 186.092 35.1742 185.724 36.2312C185.364 37.2883 184.847 38.1892 184.174 38.9339C183.51 39.6787 182.717 40.2513 181.796 40.6517C180.883 41.044 179.87 41.2402 178.757 41.2402C177.644 41.2402 176.627 41.044 175.706 40.6517C174.785 40.2513 173.984 39.6787 173.303 38.9339C172.631 38.1892 172.11 37.2883 171.742 36.2312C171.374 35.1742 171.189 33.981 171.189 32.6516V31.8709C171.189 30.5415 171.374 29.3483 171.742 28.2913C172.11 27.2262 172.627 26.3213 173.291 25.5766C173.964 24.8318 174.761 24.2632 175.682 23.8708C176.603 23.4704 177.62 23.2702 178.733 23.2702C179.846 23.2702 180.863 23.4704 181.784 23.8708C182.705 24.2632 183.498 24.8318 184.162 25.5766C184.835 26.3213 185.356 27.2262 185.724 28.2913C186.092 29.3483 186.276 30.5415 186.276 31.8709ZM182.324 32.6516V31.8468C182.324 30.9579 182.244 30.1732 182.084 29.4925C181.924 28.8038 181.692 28.2272 181.388 27.7627C181.083 27.2983 180.707 26.9499 180.258 26.7177C179.81 26.4775 179.301 26.3573 178.733 26.3573C178.14 26.3573 177.624 26.4775 177.183 26.7177C176.743 26.9499 176.371 27.2983 176.066 27.7627C175.77 28.2272 175.542 28.8038 175.382 29.4925C175.229 30.1732 175.153 30.9579 175.153 31.8468V32.6516C175.153 33.5325 175.229 34.3173 175.382 35.006C175.542 35.6867 175.774 36.2633 176.078 36.7357C176.383 37.2082 176.755 37.5646 177.195 37.8048C177.644 38.045 178.164 38.1652 178.757 38.1652C179.325 38.1652 179.83 38.045 180.27 37.8048C180.719 37.5646 181.095 37.2082 181.4 36.7357C181.704 36.2633 181.932 35.6867 182.084 35.006C182.244 34.3173 182.324 33.5325 182.324 32.6516ZM195.682 26.8378L191.165 41H186.985L193.46 23.5105H196.102L195.682 26.8378ZM199.43 41L194.901 26.8378L194.433 23.5105H197.111L203.61 41H199.43ZM199.237 34.4895V37.5165H190.12V34.4895H199.237ZM210.601 41H206.757L206.781 37.973H210.601C211.474 37.973 212.21 37.7728 212.811 37.3724C213.412 36.964 213.868 36.3634 214.18 35.5706C214.493 34.7698 214.649 33.7968 214.649 32.6516V31.8468C214.649 30.982 214.561 30.2212 214.385 29.5645C214.208 28.8999 213.948 28.3433 213.604 27.8949C213.259 27.4464 212.831 27.1101 212.319 26.8859C211.814 26.6616 211.233 26.5495 210.577 26.5495H206.685V23.5105H210.577C211.762 23.5105 212.843 23.7107 213.82 24.1111C214.805 24.5115 215.654 25.0841 216.367 25.8288C217.087 26.5736 217.644 27.4544 218.036 28.4715C218.429 29.4885 218.625 30.6216 218.625 31.8709V32.6516C218.625 33.8929 218.429 35.026 218.036 36.051C217.644 37.0681 217.087 37.9489 216.367 38.6937C215.654 39.4304 214.809 39.999 213.832 40.3994C212.855 40.7998 211.778 41 210.601 41ZM208.979 23.5105V41H205.063V23.5105H208.979Z" fill="white"/>
<path d="M52.5003 49.5832C43.0652 49.5832 35.417 41.935 35.417 32.4998C35.417 23.0647 43.0652 15.4165 52.5003 15.4165C61.9355 15.4165 69.5837 23.0647 69.5837 32.4998C69.5734 41.9298 61.9303 49.5729 52.5003 49.5832ZM45.2006 37.261C44.9802 37.261 44.7616 37.2883 44.5463 37.3395L44.2901 37.4096L43.2753 39.147C43.09 39.4561 43.0305 39.8247 43.1091 40.1765C43.1877 40.5283 43.3984 40.8365 43.6978 41.0373C43.9971 41.2382 44.3621 41.3164 44.7175 41.2558C45.0728 41.1953 45.3913 41.0005 45.6072 40.7118L45.7131 40.5529L47.0627 38.2108C46.844 37.9183 46.5605 37.6803 46.2345 37.5155C45.9085 37.3507 45.5488 37.2636 45.1835 37.261H45.2006ZM54.5691 26.794C54.0376 27.2933 53.6852 27.9537 53.5663 28.6732C53.3759 29.6653 53.5584 30.6927 54.0788 31.5585L59.2722 40.5546C59.4529 40.8587 59.7411 41.084 60.0799 41.1858C60.4187 41.2877 60.7833 41.2587 61.1018 41.1047C61.4193 40.9481 61.6661 40.6774 61.7928 40.3468C61.9195 40.0162 61.9167 39.6499 61.7851 39.3212L61.7014 39.1504L60.3347 36.7741H62.3677C62.7237 36.7711 63.0653 36.6332 63.3236 36.3881C63.5819 36.1431 63.7376 35.8092 63.7592 35.4538C63.7809 35.0984 63.667 34.7481 63.4404 34.4734C63.2138 34.1988 62.8915 34.0204 62.5385 33.9741L62.3677 33.9639H58.7118L54.9637 27.4722L54.5725 26.7889L54.5691 26.794ZM42.6945 33.9519C42.5109 33.9524 42.3292 33.989 42.1598 34.0598C41.9905 34.1306 41.8367 34.2341 41.7074 34.3643C41.578 34.4946 41.4757 34.6491 41.4061 34.819C41.3366 34.9889 41.3013 35.1709 41.3022 35.3545C41.3022 36.0617 41.8284 36.6596 42.5305 36.7502L42.7013 36.7587H55.4797C55.6211 36.4747 55.6922 36.161 55.6872 35.8438C55.6821 35.5266 55.601 35.2152 55.4506 34.9359C55.3227 34.6742 55.1321 34.4483 54.8958 34.2781C54.6594 34.1079 54.3846 33.9988 54.0959 33.9605L53.8892 33.9502H49.5312L55.5582 23.514C55.7439 23.1905 55.7942 22.8067 55.6983 22.4463C55.6301 22.1933 55.4926 21.9645 55.3014 21.7854C55.1102 21.6063 54.8727 21.4841 54.6158 21.4327C54.359 21.3812 54.0928 21.4024 53.8473 21.494C53.6019 21.5855 53.3868 21.7438 53.2264 21.9509L53.1205 22.108L52.5003 23.1911L51.887 22.108C51.7063 21.8035 51.4177 21.578 51.0786 21.4761C50.7394 21.3742 50.3743 21.4034 50.0557 21.558C49.7383 21.7152 49.4918 21.9862 49.3651 22.317C49.2385 22.6478 49.2411 23.0142 49.3724 23.3432L49.4561 23.514L50.874 26.0082L46.2871 33.9519H42.6945Z" fill="white"/>
</svg>
