<svg width="260" height="67" viewBox="0 0 260 67" fill="none" xmlns="http://www.w3.org/2000/svg">
<rect width="260" height="66.7732" rx="5" fill="black"/>
<path d="M93.979 40H90.1351L90.1592 36.973H93.979C94.8519 36.973 95.5886 36.7728 96.1892 36.3724C96.7898 35.964 97.2463 35.3634 97.5586 34.5706C97.8709 33.7698 98.027 32.7968 98.027 31.6516V30.8468C98.027 29.982 97.939 29.2212 97.7628 28.5645C97.5866 27.8999 97.3263 27.3433 96.982 26.8949C96.6377 26.4464 96.2092 26.1101 95.6967 25.8859C95.1922 25.6616 94.6116 25.5495 93.955 25.5495H90.0631V22.5105H93.955C95.1402 22.5105 96.2212 22.7107 97.1982 23.1111C98.1832 23.5115 99.0321 24.0841 99.7448 24.8288C100.465 25.5736 101.022 26.4544 101.414 27.4715C101.807 28.4885 102.003 29.6216 102.003 30.8709V31.6516C102.003 32.8929 101.807 34.026 101.414 35.051C101.022 36.0681 100.465 36.9489 99.7448 37.6937C99.0321 38.4304 98.1872 38.999 97.2102 39.3994C96.2332 39.7998 95.1562 40 93.979 40ZM92.3574 22.5105V40H88.4414V22.5105H92.3574ZM118.976 30.8709V31.6516C118.976 32.981 118.792 34.1742 118.423 35.2312C118.063 36.2883 117.547 37.1892 116.874 37.9339C116.209 38.6787 115.416 39.2513 114.496 39.6517C113.583 40.044 112.57 40.2402 111.456 40.2402C110.343 40.2402 109.326 40.044 108.405 39.6517C107.485 39.2513 106.684 38.6787 106.003 37.9339C105.33 37.1892 104.81 36.2883 104.441 35.2312C104.073 34.1742 103.889 32.981 103.889 31.6516V30.8709C103.889 29.5415 104.073 28.3483 104.441 27.2913C104.81 26.2262 105.326 25.3213 105.991 24.5766C106.664 23.8318 107.46 23.2632 108.381 22.8708C109.302 22.4704 110.319 22.2702 111.432 22.2702C112.546 22.2702 113.563 22.4704 114.484 22.8708C115.404 23.2632 116.197 23.8318 116.862 24.5766C117.535 25.3213 118.055 26.2262 118.423 27.2913C118.792 28.3483 118.976 29.5415 118.976 30.8709ZM115.024 31.6516V30.8468C115.024 29.9579 114.944 29.1732 114.784 28.4925C114.624 27.8038 114.391 27.2272 114.087 26.7627C113.783 26.2983 113.406 25.9499 112.958 25.7177C112.51 25.4775 112.001 25.3573 111.432 25.3573C110.84 25.3573 110.323 25.4775 109.883 25.7177C109.442 25.9499 109.07 26.2983 108.766 26.7627C108.47 27.2272 108.241 27.8038 108.081 28.4925C107.929 29.1732 107.853 29.9579 107.853 30.8468V31.6516C107.853 32.5325 107.929 33.3173 108.081 34.006C108.241 34.6867 108.474 35.2633 108.778 35.7357C109.082 36.2082 109.454 36.5646 109.895 36.8048C110.343 37.045 110.864 37.1652 111.456 37.1652C112.025 37.1652 112.53 37.045 112.97 36.8048C113.418 36.5646 113.795 36.2082 114.099 35.7357C114.403 35.2633 114.632 34.6867 114.784 34.006C114.944 33.3173 115.024 32.5325 115.024 31.6516ZM125.511 37.8138L128.994 22.5105H131L131.793 24.4084L128.081 40H125.883L125.511 37.8138ZM124.153 22.5105L127.072 37.8859L126.568 40H124.069L120.273 22.5105H124.153ZM134.279 37.8018L137.162 22.5105H141.03L137.234 40H134.76L134.279 37.8018ZM132.309 22.5105L135.841 37.8979L135.433 40H133.246L129.475 24.3964L130.303 22.5105H132.309ZM157.258 22.5105V40H153.354L146.748 28.6967V40H142.832V22.5105H146.748L153.366 33.8138V22.5105H157.258ZM171.565 36.973V40H162.736V36.973H171.565ZM164.069 22.5105V40H160.153V22.5105H164.069ZM187.276 30.8709V31.6516C187.276 32.981 187.092 34.1742 186.724 35.2312C186.364 36.2883 185.847 37.1892 185.174 37.9339C184.51 38.6787 183.717 39.2513 182.796 39.6517C181.883 40.044 180.87 40.2402 179.757 40.2402C178.644 40.2402 177.627 40.044 176.706 39.6517C175.785 39.2513 174.984 38.6787 174.303 37.9339C173.631 37.1892 173.11 36.2883 172.742 35.2312C172.374 34.1742 172.189 32.981 172.189 31.6516V30.8709C172.189 29.5415 172.374 28.3483 172.742 27.2913C173.11 26.2262 173.627 25.3213 174.291 24.5766C174.964 23.8318 175.761 23.2632 176.682 22.8708C177.603 22.4704 178.62 22.2702 179.733 22.2702C180.846 22.2702 181.863 22.4704 182.784 22.8708C183.705 23.2632 184.498 23.8318 185.162 24.5766C185.835 25.3213 186.356 26.2262 186.724 27.2913C187.092 28.3483 187.276 29.5415 187.276 30.8709ZM183.324 31.6516V30.8468C183.324 29.9579 183.244 29.1732 183.084 28.4925C182.924 27.8038 182.692 27.2272 182.388 26.7627C182.083 26.2983 181.707 25.9499 181.258 25.7177C180.81 25.4775 180.301 25.3573 179.733 25.3573C179.14 25.3573 178.624 25.4775 178.183 25.7177C177.743 25.9499 177.371 26.2983 177.066 26.7627C176.77 27.2272 176.542 27.8038 176.382 28.4925C176.229 29.1732 176.153 29.9579 176.153 30.8468V31.6516C176.153 32.5325 176.229 33.3173 176.382 34.006C176.542 34.6867 176.774 35.2633 177.078 35.7357C177.383 36.2082 177.755 36.5646 178.195 36.8048C178.644 37.045 179.164 37.1652 179.757 37.1652C180.325 37.1652 180.83 37.045 181.27 36.8048C181.719 36.5646 182.095 36.2082 182.4 35.7357C182.704 35.2633 182.932 34.6867 183.084 34.006C183.244 33.3173 183.324 32.5325 183.324 31.6516ZM196.682 25.8378L192.165 40H187.985L194.46 22.5105H197.102L196.682 25.8378ZM200.43 40L195.901 25.8378L195.433 22.5105H198.111L204.61 40H200.43ZM200.237 33.4895V36.5165H191.12V33.4895H200.237ZM211.601 40H207.757L207.781 36.973H211.601C212.474 36.973 213.21 36.7728 213.811 36.3724C214.412 35.964 214.868 35.3634 215.18 34.5706C215.493 33.7698 215.649 32.7968 215.649 31.6516V30.8468C215.649 29.982 215.561 29.2212 215.385 28.5645C215.208 27.8999 214.948 27.3433 214.604 26.8949C214.259 26.4464 213.831 26.1101 213.319 25.8859C212.814 25.6616 212.233 25.5495 211.577 25.5495H207.685V22.5105H211.577C212.762 22.5105 213.843 22.7107 214.82 23.1111C215.805 23.5115 216.654 24.0841 217.367 24.8288C218.087 25.5736 218.644 26.4544 219.036 27.4715C219.429 28.4885 219.625 29.6216 219.625 30.8709V31.6516C219.625 32.8929 219.429 34.026 219.036 35.051C218.644 36.0681 218.087 36.9489 217.367 37.6937C216.654 38.4304 215.809 38.999 214.832 39.3994C213.855 39.7998 212.778 40 211.601 40ZM209.979 22.5105V40H206.063V22.5105H209.979Z" fill="white"/>
<path d="M56.2885 32.0775L61.8329 27.1632L43.9248 18.2419C42.7379 17.6735 41.626 17.5938 40.651 18.2153L56.2885 32.0775ZM62.7779 37.8311L68.5416 34.9576C69.6666 34.3992 70.2835 33.6081 70.2835 32.7306C70.2835 31.8548 69.6666 31.062 68.5435 30.5036L63.3254 27.906L57.451 33.1112L62.7779 37.8311ZM39.6873 19.4235C39.5673 19.7509 39.4998 20.1166 39.4998 20.5171V44.9558C39.4998 45.589 39.6573 46.1341 39.9423 46.5679L55.1241 33.1096L39.6873 19.4235ZM56.2885 34.1399L41.191 47.5235C41.4798 47.6215 41.791 47.6731 42.1191 47.6731C42.7041 47.6731 43.3135 47.5202 43.9341 47.2144L61.2873 38.5773L56.2885 34.1399Z" fill="white"/>
</svg>
