<svg width="132" height="42" viewBox="0 0 132 42" fill="none" xmlns="http://www.w3.org/2000/svg">
<path d="M56.861 15.9087V19.9901H42.7153V15.9087H56.861ZM46.7967 9.76346H52.3854V34.0663C52.3854 34.8393 52.4936 35.4345 52.7101 35.8519C52.942 36.2538 53.2589 36.5244 53.6608 36.6635C54.0628 36.8027 54.5343 36.8722 55.0754 36.8722C55.4619 36.8722 55.8329 36.849 56.1885 36.8027C56.5441 36.7563 56.8301 36.7099 57.0465 36.6635L57.0697 40.9304C56.6059 41.0696 56.0648 41.1932 55.4464 41.3015C54.8435 41.4097 54.1478 41.4638 53.3594 41.4638C52.0762 41.4638 50.9399 41.2396 49.9505 40.7913C48.9611 40.3275 48.1881 39.5777 47.6315 38.5419C47.075 37.5061 46.7967 36.1302 46.7967 34.4141V9.76346ZM72.2358 41.4638C70.3806 41.4638 68.7032 41.1623 67.2036 40.5594C65.7195 39.941 64.4518 39.083 63.4005 37.9853C62.3647 36.8877 61.5685 35.5968 61.012 34.1127C60.4554 32.6285 60.1771 31.0284 60.1771 29.3124V28.3848C60.1771 26.4214 60.4632 24.6435 61.0352 23.0512C61.6072 21.4588 62.4034 20.0983 63.4237 18.9698C64.4441 17.8257 65.6499 16.9523 67.0413 16.3493C68.4327 15.7464 69.94 15.4449 71.5633 15.4449C73.3566 15.4449 74.9258 15.7464 76.2708 16.3493C77.6158 16.9523 78.7289 17.8026 79.6101 18.9002C80.5068 19.9824 81.1716 21.2733 81.6044 22.7729C82.0528 24.2725 82.2769 25.9267 82.2769 27.7355V30.124H62.8903V26.1122H76.7578V25.6716C76.7269 24.6667 76.5259 23.7237 76.1549 22.8425C75.7993 21.9612 75.2505 21.2501 74.5084 20.709C73.7663 20.1679 72.7769 19.8974 71.5401 19.8974C70.6125 19.8974 69.7854 20.0983 69.0588 20.5003C68.3477 20.8868 67.7525 21.4511 67.2732 22.1931C66.7939 22.9352 66.4229 23.8319 66.1601 24.8832C65.9127 25.919 65.7891 27.0862 65.7891 28.3848V29.3124C65.7891 30.41 65.9359 31.4304 66.2297 32.3734C66.5389 33.301 66.9872 34.1127 67.5747 34.8083C68.1621 35.504 68.8733 36.0529 69.7081 36.4548C70.5429 36.8413 71.4937 37.0346 72.5605 37.0346C73.9055 37.0346 75.1036 36.764 76.1549 36.2229C77.2061 35.6818 78.1183 34.9166 78.8912 33.9271L81.8363 36.7795C81.2952 37.5679 80.5918 38.3255 79.7261 39.0521C78.8603 39.7632 77.8013 40.343 76.5491 40.7913C75.3123 41.2396 73.8745 41.4638 72.2358 41.4638ZM92.2485 20.6858V41H86.6598V15.9087H91.9934L92.2485 20.6858ZM99.9243 15.7464L99.8779 20.9409C99.5378 20.8791 99.1668 20.8327 98.7648 20.8018C98.3783 20.7708 97.9918 20.7554 97.6053 20.7554C96.6468 20.7554 95.8043 20.8945 95.0777 21.1728C94.351 21.4356 93.7404 21.8221 93.2457 22.3323C92.7664 22.827 92.3954 23.4299 92.1326 24.1411C91.8698 24.8522 91.7152 25.6484 91.6688 26.5296L90.3933 26.6224C90.3933 25.0455 90.5479 23.5845 90.8571 22.2395C91.1663 20.8945 91.6301 19.7118 92.2485 18.6915C92.8824 17.6712 93.6708 16.875 94.6139 16.303C95.5724 15.7309 96.6778 15.4449 97.93 15.4449C98.2701 15.4449 98.6334 15.4759 99.0199 15.5377C99.4219 15.5995 99.7233 15.6691 99.9243 15.7464ZM114.024 41.4638C112.168 41.4638 110.491 41.1623 108.991 40.5594C107.507 39.941 106.24 39.083 105.188 37.9853C104.153 36.8877 103.356 35.5968 102.8 34.1127C102.243 32.6285 101.965 31.0284 101.965 29.3124V28.3848C101.965 26.4214 102.251 24.6435 102.823 23.0512C103.395 21.4588 104.191 20.0983 105.212 18.9698C106.232 17.8257 107.438 16.9523 108.829 16.3493C110.221 15.7464 111.728 15.4449 113.351 15.4449C115.144 15.4449 116.714 15.7464 118.059 16.3493C119.404 16.9523 120.517 17.8026 121.398 18.9002C122.295 19.9824 122.959 21.2733 123.392 22.7729C123.841 24.2725 124.065 25.9267 124.065 27.7355V30.124H104.678V26.1122H118.546V25.6716C118.515 24.6667 118.314 23.7237 117.943 22.8425C117.587 21.9612 117.038 21.2501 116.296 20.709C115.554 20.1679 114.565 19.8974 113.328 19.8974C112.4 19.8974 111.573 20.0983 110.847 20.5003C110.136 20.8868 109.54 21.4511 109.061 22.1931C108.582 22.9352 108.211 23.8319 107.948 24.8832C107.701 25.919 107.577 27.0862 107.577 28.3848V29.3124C107.577 30.41 107.724 31.4304 108.018 32.3734C108.327 33.301 108.775 34.1127 109.363 34.8083C109.95 35.504 110.661 36.0529 111.496 36.4548C112.331 36.8413 113.282 37.0346 114.348 37.0346C115.693 37.0346 116.891 36.764 117.943 36.2229C118.994 35.6818 119.906 34.9166 120.679 33.9271L123.624 36.7795C123.083 37.5679 122.38 38.3255 121.514 39.0521C120.648 39.7632 119.589 40.343 118.337 40.7913C117.1 41.2396 115.662 41.4638 114.024 41.4638Z" fill="black"/>
<path d="M36.0347 11.9467L35.9427 11.7223L35.7717 11.8942L32.366 15.3179L32.301 15.3832L32.3244 15.4723C32.6091 16.5578 32.7516 17.6792 32.7516 18.8372C32.7516 26.3525 26.643 32.4611 19.1276 32.4611C11.5941 32.4611 5.48566 26.3523 5.48566 18.8372C5.48566 17.6609 5.62823 16.5214 5.91286 15.4363L5.93622 15.3472L5.87128 15.2819L2.46559 11.8582L2.29402 11.6857L2.20235 11.9111C1.32997 14.0557 0.839026 16.3827 0.839026 18.8372C0.839026 28.9089 9.0379 37.1077 19.1096 37.1077C29.1813 37.1077 37.3802 28.9089 37.3802 18.8372C37.3802 16.4016 36.9076 14.0743 36.0347 11.9467ZM30.4363 11.2685L30.5454 11.4312L30.6839 11.2927L33.7832 8.19333L33.8813 8.09519L33.7987 7.98367C30.4722 3.49383 25.1275 0.566565 19.1096 0.566565C13.11 0.566565 7.76516 3.47561 4.43852 7.96565L4.3559 8.07717L4.45404 8.17531L7.55339 11.2747L7.69186 11.4131L7.80092 11.2505C9.86691 8.16931 13.1616 5.97895 16.9722 5.37343C17.6664 5.26666 18.3788 5.2132 19.1096 5.2132C19.8404 5.2132 20.5529 5.26666 21.2471 5.37344C25.0753 5.97891 28.3701 8.18701 30.4363 11.2685Z" fill="black" stroke="black" stroke-width="0.321949"/>
<path d="M21.2776 19.4274H21.4386V19.2664L21.4386 2.49023V2.32926H21.2776L16.9529 2.32926H16.7919V2.49023L16.7919 19.2664V19.4274H16.9529H21.2776Z" fill="black" stroke="black" stroke-width="0.321949"/>
</svg>
